<svg xmlns="http://www.w3.org/2000/svg" viewBox="0 0 200 160" fill="none" stroke="#1d1d1f" stroke-width="4" stroke-linecap="round" stroke-linejoin="round">
<g transform="translate(84 82)"><circle cx="0" cy="0" r="46" fill="#ffffff"/><path d="M-24.5 -8.2 Q-16.4 0 -8.2 -8.2"/><path d="M7.2 -7.2 L25.6 -7.2"/><path d="M8.2 -7.2 A8.2 7.2 0 0 0 24.5 -7.2" stroke-width="3"/><circle cx="16.4" cy="-3.6" r="2.9" fill="#1d1d1f" stroke="none"/><line x1="-25.6" y1="-18.4" x2="-8.2" y2="-18.4"/><path d="M7.2 -24.5 Q16.4 -31.7 25.6 -24.5"/><line x1="-12.3" y1="21.5" x2="11.2" y2="17.4"/><path d="M-30.7 -36.8 l-6 -14 M-12.3 -45 l2 -14 M8.2 -45 l-4 -14 M26.6 -38.8 l8 -12" stroke-width="3.5"/></g><rect x="144" y="100" width="28" height="28" rx="4" fill="#ffffff" stroke-width="3"/><path d="M172 106 q11 0 11 8 q0 8 -11 8" stroke-width="3"/><path d="M150 92 q-4 -6 0 -12 M158 90 q-4 -6 0 -12 M166 92 q-4 -6 0 -12" stroke="#8b8d98" stroke-width="2.5"/>
</svg>
