<svg xmlns="http://www.w3.org/2000/svg" viewBox="0 0 200 160" fill="none" stroke="#1d1d1f" stroke-width="4" stroke-linecap="round" stroke-linejoin="round">
<g transform="translate(62 84)"><circle cx="0" cy="0" r="42" fill="#cdebc0"/><path d="M-23.3 -9.3 L-6.5 -5.6"/><circle cx="-11.2" cy="-3.7" r="2.4" fill="#1d1d1f" stroke="none"/><path d="M6.5 -5.6 L23.3 -9.3"/><circle cx="18.7" cy="-3.7" r="2.4" fill="#1d1d1f" stroke="none"/><line x1="-23.3" y1="-25.2" x2="-7.5" y2="-16.8"/><line x1="7.5" y1="-16.8" x2="23.3" y2="-25.2"/><path d="M-13.1 22.4 Q0 10.3 13.1 22.4"/></g><polyline points="152,72 152,108"/><polyline points="152,108 148,126 146,142"/><polyline points="152,108 156,126 158,142"/><polyline points="152,72 140,90 136,104"/><polyline points="152,72 164,84 170,70"/><circle cx="152" cy="60" r="10" fill="#ffffff"/><path d="M145.5 59.5 Q147.5 56.5 149.5 59.5" stroke-width="1.8"/><path d="M143.5 59.5 Q145.5 56.5 147.5 59.5" stroke-width="1.8"/><path d="M146 63.5 Q149 66.5 152 63.5" stroke-width="1.8"/><polygon points="164,64 176,64 170,80" fill="#e6b36b" stroke-width="2.5"/><circle cx="170" cy="58" r="8" fill="#ff8fa3" stroke-width="2.5"/>
</svg>
