<svg xmlns="http://www.w3.org/2000/svg" viewBox="0 0 200 160" fill="none" stroke="#1d1d1f" stroke-width="4" stroke-linecap="round" stroke-linejoin="round">
<line x1="12" y1="142" x2="188" y2="142" stroke-width="3" stroke="#8b8d98"/><polyline points="96,58 96,96"/><polyline points="96,96 92,118 90,140"/><polyline points="96,96 106,116 114,130"/><polyline points="96,58 86,78 82,94"/><polyline points="96,58 106,66 114,74"/><circle cx="96" cy="46" r="10" fill="#ffffff"/><circle cx="97.5" cy="44.5" r="1.5" fill="#1d1d1f" stroke="none"/><circle cx="102.5" cy="44.5" r="1.5" fill="#1d1d1f" stroke="none"/><path d="M96 51.5 Q99 48.5 102 51.5" stroke-width="1.8"/><line x1="93" y1="42" x2="98" y2="40" stroke-width="1.8"/><line x1="105" y1="42" x2="100" y2="40" stroke-width="1.8"/><rect x="104" y="112" width="12" height="14" fill="#ffffff" stroke-width="2.5" transform="rotate(-30 110 119)"/><line x1="112" y1="64" x2="122" y2="140" stroke="#a0714f" stroke-width="4"/><line x1="104" y1="64" x2="120" y2="64" stroke="#a0714f" stroke-width="4"/>
</svg>
