<svg xmlns="http://www.w3.org/2000/svg" viewBox="0 0 200 160" fill="none" stroke="#1d1d1f" stroke-width="4" stroke-linecap="round" stroke-linejoin="round">
<line x1="12" y1="142" x2="188" y2="142" stroke-width="3" stroke="#8b8d98"/><polygon points="30,60 100,30 170,60" fill="#ffffff" stroke-width="3"/><rect x="24" y="60" width="152" height="74" fill="#fdf6e3" stroke-width="3"/><rect x="30" y="70" width="12" height="16" fill="#cfe6ff" stroke-width="2"/><rect x="30" y="100" width="12" height="16" fill="#cfe6ff" stroke-width="2"/><rect x="52" y="70" width="12" height="16" fill="#cfe6ff" stroke-width="2"/><rect x="52" y="100" width="12" height="16" fill="#cfe6ff" stroke-width="2"/><rect x="74" y="70" width="12" height="16" fill="#cfe6ff" stroke-width="2"/><rect x="74" y="100" width="12" height="16" fill="#cfe6ff" stroke-width="2"/><rect x="114" y="70" width="12" height="16" fill="#cfe6ff" stroke-width="2"/><rect x="114" y="100" width="12" height="16" fill="#cfe6ff" stroke-width="2"/><rect x="136" y="70" width="12" height="16" fill="#cfe6ff" stroke-width="2"/><rect x="136" y="100" width="12" height="16" fill="#cfe6ff" stroke-width="2"/><rect x="158" y="70" width="12" height="16" fill="#cfe6ff" stroke-width="2"/><rect x="158" y="100" width="12" height="16" fill="#cfe6ff" stroke-width="2"/><line x1="90" y1="64" x2="90" y2="134" stroke-width="3"/><line x1="100" y1="64" x2="100" y2="134" stroke-width="3"/><line x1="110" y1="64" x2="110" y2="134" stroke-width="3"/><rect x="94" y="114" width="12" height="20" fill="#8a5a36" stroke-width="2.5"/><path d="M84 134 L116 134 L122 142 L78 142 Z" fill="#d9dae0" stroke-width="3"/><circle cx="100" cy="46" r="5" stroke-width="2.5"/>
</svg>
