<svg xmlns="http://www.w3.org/2000/svg" viewBox="0 0 200 160" fill="none" stroke="#1d1d1f" stroke-width="4" stroke-linecap="round" stroke-linejoin="round">
<g transform="translate(100 90) rotate(8)"><circle cx="0" cy="0" r="44" fill="#ffffff"/><path d="M-23.5 -7.8 Q-15.6 0 -7.8 -7.8"/><path d="M7.8 -7.8 Q15.6 0 23.5 -7.8"/><circle cx="0" cy="19.6" r="4.9" fill="#ffffff" stroke-width="3"/></g><path d="M62 70 Q80 26 128 40 Q150 48 158 70" fill="#9cc7f5" stroke-width="3"/><path d="M62 70 Q100 56 140 64" stroke-width="3"/><circle cx="160" cy="76" r="7" fill="#ffffff" stroke-width="3"/><polyline points="150,30.4 155,30.4 150,35.4 155,35.4" stroke-width="2.49"/><polyline points="159,21.4 165.5,21.4 159,27.9 165.5,27.9" stroke-width="3"/><polyline points="169.8,10.6 177.7,10.6 169.8,18.5 177.7,18.5" stroke-width="3"/>
</svg>
