<svg xmlns="http://www.w3.org/2000/svg" viewBox="0 0 200 160" fill="none" stroke="#1d1d1f" stroke-width="4" stroke-linecap="round" stroke-linejoin="round">
<line x1="12" y1="142" x2="188" y2="142" stroke-width="3" stroke="#8b8d98"/><circle cx="84" cy="136" r="7" fill="#d9dae0" stroke-width="3"/><polyline points="128,78 98,98"/><polyline points="98,98 88,118 80,130"/><polyline points="98,98 108,114 90,124"/><polyline points="128,78 140,92 152,102"/><polyline points="128,78 142,84 158,88"/><circle cx="138" cy="72" r="10" fill="#ffffff"/><circle cx="139.5" cy="70.5" r="2.4" stroke-width="1.5" fill="#ffffff"/><circle cx="139.5" cy="70.5" r="0.9" fill="#1d1d1f" stroke="none"/><circle cx="144.5" cy="70.5" r="2.4" stroke-width="1.5" fill="#ffffff"/><circle cx="144.5" cy="70.5" r="0.9" fill="#1d1d1f" stroke="none"/><ellipse cx="141" cy="77" rx="2.2" ry="3" fill="#1d1d1f" stroke-width="1"/><line x1="60" y1="88" x2="74" y2="88" stroke-width="2.5" stroke="#8b8d98"/><line x1="58" y1="100" x2="72" y2="100" stroke-width="2.5" stroke="#8b8d98"/>
</svg>
