<svg xmlns="http://www.w3.org/2000/svg" viewBox="0 0 200 160" fill="none" stroke="#1d1d1f" stroke-width="4" stroke-linecap="round" stroke-linejoin="round">
<g transform="translate(50 84)"><circle cx="0" cy="0" r="34" fill="#ffffff"/><circle cx="-10.2" cy="-5.3" r="3.2" fill="#1d1d1f" stroke="none"/><circle cx="14" cy="-5.3" r="3.2" fill="#1d1d1f" stroke="none"/><circle cx="0" cy="15.1" r="3.8" fill="#ffffff" stroke-width="3"/></g><g transform="translate(154 84)"><circle cx="0" cy="0" r="34" fill="#ffffff"/><circle cx="-14" cy="-5.3" r="3.2" fill="#1d1d1f" stroke="none"/><circle cx="10.2" cy="-5.3" r="3.2" fill="#1d1d1f" stroke="none"/><path d="M-18.9 -17.4 Q-12.1 -24.2 -5.3 -17.4"/><path d="M5.3 -17.4 Q12.1 -24.2 18.9 -17.4"/><line x1="-9.1" y1="14.4" x2="9.1" y2="14.4"/></g><ellipse cx="120" cy="84" rx="6" ry="10" fill="#ffffff" stroke-width="3"/><path d="M84 102 Q104 94 100 70" stroke-width="4"/><path d="M96 84 q6 -3 12 0 M96 90 q6 3 12 6 M96 78 q6 -5 12 -8" stroke="#8b8d98" stroke-width="2" stroke-dasharray="2 4"/>
</svg>
